<svg version="1.1" id="Layer_1" xmlns="http://www.w3.org/2000/svg" xmlns:xlink="http://www.w3.org/1999/xlink" x="0px" y="0px"
	 width="100%" viewBox="0 0 960 960" enable-background="new 0 0 960 960" xml:space="preserve">
<!-- REMOVED the black background path (fill="#000000") -->

<path fill="#FEFFFF" opacity="1.000000" stroke="none" 
	d="
M453.249268,69.249237 
	C462.541626,59.931396 471.584015,50.863602 480.298309,42.124847 
	C626.848816,188.675598 773.159302,334.986267 919.109192,480.936371 
	C773.290955,626.754395 626.980286,773.064941 481.060333,918.984741 
	C335.336609,773.260925 189.026062,626.950256 42.286934,480.211029 
	C178.739059,343.759094 315.869171,206.629196 453.249268,69.249237 
M349.736359,348.237671 
	C393.019684,308.110718 444.166870,289.780029 502.714508,297.184814 
	C577.016296,306.582031 628.766235,347.349030 657.691101,416.334473 
	C663.480408,430.142090 666.358643,445.170288 670.663452,459.924408 
	C730.305786,459.924408 790.889526,459.924408 851.085632,459.924408 
	C727.576050,336.414825 604.128784,212.967575 481.304779,90.143539 
	C358.090179,213.358292 234.584122,336.864532 111.435959,460.012848 
	C171.300354,460.012848 231.973282,460.012848 292.573608,460.012848 
	C300.337677,414.008331 318.869812,377.692657 349.736359,348.237671 
M759.500000,506.069641 
	C729.724060,506.069641 699.948120,506.069641 670.224304,506.069641 
	C662.552917,594.833801 584.426575,674.118225 483.816956,675.498169 
	C444.070770,676.043335 407.364807,665.415344 374.607300,642.847290 
	C326.690491,609.835449 299.606445,563.825623 291.926453,506.378174 
	C231.193237,506.378174 170.824799,506.378174 111.861298,506.378174 
	C234.922028,629.438965 358.530212,753.047180 480.896698,875.413696 
	C603.776245,752.534180 727.253418,629.057007 850.240784,506.069672 
	C821.115356,506.069672 790.807678,506.069672 759.500000,506.069641 
M445.639435,337.070801 
	C376.885864,353.102722 322.625183,418.534821 328.958588,497.901337 
	C330.839905,521.477112 337.785614,543.391968 349.932434,563.645813 
	C366.587250,591.416382 389.676361,611.969360 419.313538,625.107788 
	C448.793396,638.176514 479.375885,641.324890 510.943298,635.121399 
	C586.704285,620.232971 641.447693,549.571533 632.709656,469.076019 
	C628.338440,428.808075 610.563171,394.912231 579.284790,369.005280 
	C540.424561,336.818481 495.867462,326.385712 445.639435,337.070801 
z"/>
<path fill="#018BE3" opacity="1.000000" stroke="none" 
	d="
M349.479675,348.479126 
	C318.869812,377.692657 300.337677,414.008331 292.573608,460.012848 
	C231.973282,460.012848 171.300354,460.012848 111.435959,460.012848 
	C234.584122,336.864532 358.090179,213.358292 481.304779,90.143539 
	C604.128784,212.967575 727.576050,336.414825 851.085632,459.924408 
	C790.889526,459.924408 730.305786,459.924408 670.663452,459.924408 
	C666.358643,445.170288 663.480408,430.142090 657.691101,416.334473 
	C628.766235,347.349030 577.016296,306.582031 502.714508,297.184814 
	C444.166870,289.780029 393.019684,308.110718 349.479675,348.479126 
z"/>
<path fill="#01CEB4" opacity="1.000000" stroke="none" 
	d="
M760.000000,506.069641 
	C790.807678,506.069672 821.115356,506.069672 850.240784,506.069672 
	C727.253418,629.057007 603.776245,752.534180 480.896698,875.413696 
	C358.530212,753.047180 234.922028,629.438965 111.861298,506.378174 
	C170.824799,506.378174 231.193237,506.378174 291.926453,506.378174 
	C299.606445,563.825623 326.690491,609.835449 374.607300,642.847290 
	C407.364807,665.415344 444.070770,676.043335 483.816956,675.498169 
	C584.426575,674.118225 662.552917,594.833801 670.224304,506.069641 
	C699.948120,506.069641 729.724060,506.069641 760.000000,506.069641 
z"/>
<path fill="#FFAB40" opacity="1.000000" stroke="none" 
	d="
M446.052460,337.009521 
	C495.867462,326.385712 540.424561,336.818481 579.284790,369.005280 
	C610.563171,394.912231 628.338440,428.808075 632.709656,469.076019 
	C641.447693,549.571533 586.704285,620.232971 510.943298,635.121399 
	C479.375885,641.324890 448.793396,638.176514 419.313538,625.107788 
	C389.676361,611.969360 366.587250,591.416382 349.932434,563.645813 
	C337.785614,543.391968 330.839905,521.477112 328.958588,497.901337 
	C322.625183,418.534821 376.885864,353.102722 446.052460,337.009521 
z"/>
</svg>